<?xml version="1.0" standalone="no"?><!DOCTYPE svg PUBLIC "-//W3C//DTD SVG 1.1//EN" "http://www.w3.org/Graphics/SVG/1.1/DTD/svg11.dtd"><svg data-name="AlipayAndAlipayPlus" width="120" height="40" version="1.1" xmlns="http://www.w3.org/2000/svg" xmlns:xlink="http://www.w3.org/1999/xlink" viewBox="0 0 120 40"><g transform="translate(12, 10.857142857142858) scale(1.1428571428571428)"><defs><linearGradient x1="33.6723684%" y1="56.8029255%" x2="60.5578947%" y2="40.8413509%" id="AlipayAndAlipayPlusNormal-linearGradient-1"><stop stop-color="#1677FF" stop-opacity="0.8" offset="0%"></stop><stop stop-color="#1576FF" stop-opacity="0.8029" offset="1.457632%"></stop><stop stop-color="#0968FF" stop-opacity="0.8486" offset="24.3%"></stop><stop stop-color="#025FFF" stop-opacity="0.9045" offset="52.27%"></stop><stop stop-color="#005DFF" offset="100%"></stop></linearGradient><linearGradient x1="40.6029412%" y1="80.6348039%" x2="54.6490196%" y2="12.6905133%" id="AlipayAndAlipayPlusNormal-linearGradient-2"><stop stop-color="#005DFF" offset="0%"></stop><stop stop-color="#0A69FF" offset="8.099487%"></stop><stop stop-color="#1374FF" offset="19.63%"></stop><stop stop-color="#1677FF" offset="33.4%"></stop></linearGradient><linearGradient x1="0.151470588%" y1="50.5108696%" x2="99.9985294%" y2="50.5108696%" id="AlipayAndAlipayPlusNormal-linearGradient-3"><stop stop-color="#1677FF" offset="11.68%"></stop><stop stop-color="#1677FF" stop-opacity="0.5" offset="100%"></stop></linearGradient><linearGradient x1="0%" y1="50.4212121%" x2="100.387671%" y2="50.4212121%" id="AlipayAndAlipayPlusNormal-linearGradient-4"><stop stop-color="#1677FF" offset="36.58%"></stop><stop stop-color="#1677FF" stop-opacity="0.8" offset="55.79%"></stop><stop stop-color="#1677FF" stop-opacity="0.67" offset="97.93%"></stop></linearGradient><linearGradient x1="47.8875%" y1="99.8521368%" x2="47.8875%" y2="0.141880342%" id="AlipayAndAlipayPlusNormal-linearGradient-5"><stop stop-color="#00B6FF" offset="0%"></stop><stop stop-color="#1677FF" offset="100%"></stop></linearGradient><linearGradient x1="-30.4210352%" y1="79.8136073%" x2="69.616302%" y2="35.7416251%" id="AlipayAndAlipayPlusNormal-linearGradient-6"><stop stop-color="#0055EF" offset="0%"></stop><stop stop-color="#0058F2" offset="10.41%"></stop><stop stop-color="#0061FA" offset="17.51%"></stop><stop stop-color="#0066FF" offset="20%"></stop><stop stop-color="#006CFF" offset="35.71%"></stop><stop stop-color="#007CFF" offset="56.41%"></stop><stop stop-color="#0098FF" offset="79.78%"></stop><stop stop-color="#00B5FF" offset="100%"></stop></linearGradient><linearGradient x1="-15.4073547%" y1="39.3915824%" x2="109.046445%" y2="58.3324672%" id="AlipayAndAlipayPlusNormal-linearGradient-7"><stop stop-color="#000ABD" offset="0%"></stop><stop stop-color="#0014C1" offset="11.47%"></stop><stop stop-color="#002ECB" offset="30.73%"></stop><stop stop-color="#0058DB" offset="55.41%"></stop><stop stop-color="#0092F2" offset="84.25%"></stop><stop stop-color="#00B5FF" offset="100%"></stop></linearGradient></defs><g id="AlipayAndAlipayPlusNormal-茅隆碌茅聺垄-1" stroke="none" stroke-width="AlipayAndAlipayPlusNormal-1" fill="none" fill-rule="evenodd"><g id="AlipayAndAlipayPlusNormal-1" transform="translate(0, 0.6)" fill-rule="nonzero"><g id="AlipayAndAlipayPlusNormal-莽录聳莽禄聞" transform="translate(0, 0)"><path d="M0.9,9.4 C0.9,11.5 5.3,12.4 7.4,11.1 C7.8,10.8 8.2,10.5 8.5,10.2 C8.4,10.2 8.1,9.9 7.7,9.6 C7.3,9.4 7,9.2 6.8,9.1 C4.3,11.9 0.9,11.2 0.9,9.4 Z" id="AlipayAndAlipayPlusNormal-猫路炉氓戮聞" fill="url(#AlipayAndAlipayPlusNormal-linearGradient-1)"></path><path d="M12,1.9 L8.1,1.9 L8.1,0.1 C8.1,3.33066907e-16 8.1,3.33066907e-16 8,3.33066907e-16 C6.4,3.33066907e-16 6,0.4 6,0.9 L6,1.9 L2.3,1.9 C2,1.9 1.9,2.4 1.9,2.8 C1.9,2.9 1.9,2.9 2,2.9 L6,2.9 L6,4.2 L3.4,4.2 C3.2,4.2 3.1,4.7 3.1,5.1 C3.1,5.2 3.1,5.2 3.2,5.2 L8.5,5.2 C8.3,6.2 8.1,7 7.7,7.7 C8.4,8 9,8.4 9.7,8.7 C10.5,7.4 11,5.9 11,4.5 C11,4.4 10.9,4.3 10.8,4.3 L10.8,4.3 C10.8,4.3 10.8,4.3 10.8,4.3 L8.1,4.3 L8.1,2.9 L11.8,2.9 C12,2.9 12.1,2.4 12.1,2 C12.1,2 12.1,1.9 12,1.9 Z" id="AlipayAndAlipayPlusNormal-猫路炉氓戮聞" fill="url(#AlipayAndAlipayPlusNormal-linearGradient-2)"></path><path d="M13.2,12.3 C14.2,12.3 14.4,11.1 14.5,10.1 C14.5,9.9 14.4,9.8 14.2,9.7 C11.5,9.6 9.6,8.5 7.7,7.7 C9.8,9.5 10.7,12.3 13.2,12.3 Z" id="AlipayAndAlipayPlusNormal-猫路炉氓戮聞" fill="url(#AlipayAndAlipayPlusNormal-linearGradient-3)"></path><path d="M0.9,9.4 C0.9,8.5 1.9,7.8 3.1,7.8 C4.4,7.8 5.6,8.3 6.8,9 C7.4,9.3 7.9,9.7 8.5,10.1 C10.1,11.2 11.6,12.2 13.1,12.2 C10.7,12.1 9.8,9.3 7.7,7.6 C7.7,7.6 7.7,7.6 7.7,7.6 C6.4,7.1 5,6.5 3.3,6.5 C1.4,6.5 0,7.8 0,9.4 C0,9.6 0.2,9.8 0.4,9.8 C0.6,9.8 0.9,9.7 0.9,9.4 Z" id="AlipayAndAlipayPlusNormal-猫路炉氓戮聞" fill="#0079FF"></path><path d="M0,9.4 C0,9.4 0,9.4 0,9.4 C0,11 1.4,12.3 3.3,12.3 C4.8,12.3 6.2,11.8 7.3,11.1 C5.3,12.4 0.9,11.6 0.9,9.4 C0.9,9.4 0.9,9.4 0.9,9.4 C0.9,9.2 0.7,9 0.5,9 C0.3,9 0,9.2 0,9.4 Z" id="AlipayAndAlipayPlusNormal-猫路炉氓戮聞" fill="url(#AlipayAndAlipayPlusNormal-linearGradient-4)"></path></g><path d="M18.6,12 L19.3,12 L19.3,1.2 C19.3,0.7 18.9,0.3 18.4,0.3 L17.7,0.3 L17.7,11.1 C17.7,11.6 18.1,12 18.6,12 Z" id="AlipayAndAlipayPlusNormal-猫路炉氓戮聞" fill="url(#AlipayAndAlipayPlusNormal-linearGradient-5)"></path><g id="AlipayAndAlipayPlusNormal-莽录聳莽禄聞" transform="translate(22.5734, 0.3)"><path d="M45.1265986,14.5 L43.8265986,14.5 C43.5265986,14.5 43.3265986,14.2 43.4265986,13.9 L44.5265986,11.4 C44.5265986,11.3 44.5265986,11.3 44.5265986,11.2 L41.3265986,3.5 C41.2265986,3.2 41.4265986,2.9 41.7265986,2.9 L43.0265986,2.9 C43.3265986,2.9 43.6265986,3.1 43.8265986,3.4 L45.7265986,8.3 C45.7265986,8.4 45.8265986,8.4 45.9265986,8.3 L47.9265986,3.4 C48.0265986,3.1 48.3265986,2.9 48.7265986,2.9 L50.0265986,2.9 C50.3265986,2.9 50.5265986,3.2 50.4265986,3.5 L46.0265986,14 C45.7265986,14.4 45.6265986,14.5 45.1265986,14.5 Z" id="AlipayAndAlipayPlusNormal-猫路炉氓戮聞" fill="#0066FF"></path><path d="M21.3265986,14.1 L21.3265986,3.4 C21.3265986,3.2 21.5265986,3 21.7265986,3 L23.1265986,3 C23.3265986,3 23.5265986,3.2 23.5265986,3.4 L23.5265986,4.2 C23.5265986,4.3 23.6265986,4.3 23.7265986,4.2 C24.2265986,3.3 25.3265986,2.9 26.3265986,2.9 C28.4265986,3 30.4265986,4.8 30.4265986,7.4 C30.4265986,10.1 28.4265986,11.8 26.3265986,11.8 C25.5265986,11.8 24.3265986,11.6 23.6265986,10.7 C23.6265986,10.6 23.5265986,10.7 23.5265986,10.8 L23.5265986,14 C23.5265986,14.2 23.3265986,14.4 23.1265986,14.4 L21.7265986,14.4 C21.5265986,14.5 21.3265986,14.3 21.3265986,14.1 Z M25.9265986,10 C27.3265986,10 28.3265986,9 28.3265986,7.5 C28.3265986,6 27.3265986,5 25.9265986,5 C24.7265986,5 23.5265986,6 23.5265986,7.5 C23.5265986,9 24.7265986,10 25.9265986,10 Z" id="AlipayAndAlipayPlusNormal-氓陆垄莽聤露" fill="#0066FF"></path><path d="M40.0265986,11.7 L38.6265986,11.7 C38.4265986,11.7 38.2265986,11.5 38.2265986,11.3 L38.2265986,10.6 C38.2265986,10.5 38.1265986,10.5 38.0265986,10.6 C37.5265986,11.5 36.5265986,12 35.3265986,12 C33.1265986,12 31.1265986,10.2 31.1265986,7.5 C31.1265986,4.8 33.1265986,3 35.3265986,3 C36.3265986,3 37.4265986,3.3 38.0265986,4.3 C38.0265986,4.4 38.2265986,4.3 38.2265986,4.3 L38.2265986,3.4 C38.2265986,3.2 38.4265986,3 38.6265986,3 L40.0265986,3 C40.2265986,3 40.4265986,3.2 40.4265986,3.4 L40.4265986,11.3 C40.4265986,11.5 40.3265986,11.7 40.0265986,11.7 Z M38.2265986,7.4 C38.2265986,5.8 37.0265986,4.8 35.8265986,4.8 C34.4265986,4.8 33.4265986,5.8 33.4265986,7.4 C33.4265986,9 34.4265986,9.9 35.8265986,9.9 C37.0265986,10 38.2265986,9 38.2265986,7.4 Z" id="AlipayAndAlipayPlusNormal-氓陆垄莽聤露" fill="#0066FF"></path><path d="M15.1265986,11.7 L13.6265986,11.7 C13.4265986,11.7 13.2265986,11.5 13.2265986,11.3 L13.2265986,0.4 C13.2265986,0.2 13.4265986,1.44328993e-15 13.6265986,1.44328993e-15 L15.1265986,1.44328993e-15 C15.3265986,1.44328993e-15 15.5265986,0.2 15.5265986,0.4 L15.5265986,11.2 C15.5265986,11.5 15.3265986,11.7 15.1265986,11.7 Z" id="AlipayAndAlipayPlusNormal-猫路炉氓戮聞" fill="#0066FF"></path><path d="M19.2265986,11.7 L17.7265986,11.7 C17.5265986,11.7 17.3265986,11.5 17.3265986,11.3 L17.3265986,3.4 C17.3265986,3.2 17.5265986,3 17.7265986,3 L19.2265986,3 C19.4265986,3 19.6265986,3.2 19.6265986,3.4 L19.6265986,11.3 C19.6265986,11.5 19.4265986,11.7 19.2265986,11.7 Z" id="AlipayAndAlipayPlusNormal-猫路炉氓戮聞" fill="#0066FF"></path><path d="M19.1265986,2.3 L17.6265986,2.3 C17.4265986,2.3 17.2265986,2.1 17.2265986,1.9 L17.2265986,0.4 C17.2265986,0.2 17.4265986,1.44328993e-15 17.6265986,1.44328993e-15 L19.1265986,1.44328993e-15 C19.3265986,1.44328993e-15 19.5265986,0.2 19.5265986,0.4 L19.5265986,1.9 C19.6265986,2.1 19.4265986,2.3 19.1265986,2.3 Z" id="AlipayAndAlipayPlusNormal-猫路炉氓戮聞" fill="#0066FF"></path><g transform="translate(54.3266, 3)" id="AlipayAndAlipayPlusNormal-猫路炉氓戮聞"><path d="M5.8,8.8817842e-16 L5.3,8.8817842e-16 C5.2,8.8817842e-16 5.1,8.8817842e-16 4.9,0.1 C4,0.3 3.3,0.8 2.8,2.2 L5.1,2.2 C5.3,2.2 5.4,2.1 5.5,2 L6.1,0.4 C6.2,0.2 6,8.8817842e-16 5.8,8.8817842e-16 Z" fill="#00B5FF"></path><path d="M4.9,8.8817842e-16 C2.6,0.1 0.5,1.8 0.1,4.1 L0,4.7 C0,4.9 0.1,5.1 0.4,5.1 L1.8,5.1 C2,5.1 2.1,5 2.2,4.8 L2.4,3.7 C2.5,3.1 2.6,2.6 2.8,2.1 C3.3,0.7 4,0.2 4.9,8.8817842e-16 C5.1,8.8817842e-16 5.2,8.8817842e-16 5.3,8.8817842e-16 C5.3,8.8817842e-16 4.9,8.8817842e-16 4.9,8.8817842e-16 Z" fill="#0066FF"></path></g><g transform="translate(51.4, 0.1)" id="AlipayAndAlipayPlusNormal-猫路炉氓戮聞"><path d="M0.326598632,5 L0.826598632,5 C1.02659863,5 1.02659863,5 1.22659863,5 C2.12659863,4.8 2.82659863,4.3 3.32659863,2.9 L1.02659863,2.9 C0.826598632,2.9 0.726598632,3 0.626598632,3.1 L0.0265986324,4.6 C-0.0734013676,4.8 0.126598632,5 0.326598632,5 Z" fill="#00B5FF"></path><path d="M1.22659863,5 C3.52659863,4.9 5.62659863,3.2 5.92659863,0.9 L6.02659863,0.4 C6.02659863,0.2 5.92659863,-1.11022302e-16 5.62659863,-1.11022302e-16 L4.22659863,-1.11022302e-16 C4.02659863,-1.11022302e-16 3.92659863,0.1 3.82659863,0.3 L3.62659863,1.4 C3.52659863,2 3.42659863,2.5 3.22659863,3 C2.82659863,4.3 2.12659863,4.8 1.22659863,5 C1.02659863,5 1.02659863,5 0.826598632,5 C0.826598632,5 1.22659863,5 1.22659863,5 Z" fill="#0066FF"></path></g><path d="M5.52659863,3.4 C5.62659863,3.2 5.82659863,3.2 5.92659863,3.4 C6.52659863,4.8 9.12659863,11.3 9.12659863,11.3 C9.22659863,11.5 9.42659863,11.7 9.72659863,11.7 L11.3265986,11.7 C11.5265986,11.7 11.7265986,11.5 11.6265986,11.3 C10.9265986,9.5 7.92659863,2.4 7.02659863,0.4 C6.92659863,0.2 6.72659863,3.33066907e-16 6.52659863,3.33066907e-16 L5.12659863,3.33066907e-16 C4.92659863,3.33066907e-16 4.62659863,0.1 4.62659863,0.4 C3.82659863,2.3 0.826598632,9.5 0.0265986324,11.3 C-0.0734013676,11.5 0.126598632,11.7 0.326598632,11.7 L1.82659863,11.7 C2.12659863,11.7 2.32659863,11.6 2.52659863,11.3 L5.52659863,3.4 Z" id="AlipayAndAlipayPlusNormal-猫路炉氓戮聞" fill="#0066FF"></path><path d="M12.8265986,4.8 C12.6265986,4.4 12.4265986,3.9 12.1265986,3.5 C12.0265986,3.3 11.8265986,3.3 11.5265986,3.3 C8.52659863,3.9 6.22659863,5.3 5.32659863,6.3 C3.92659863,7.7 3.92659863,9.1 4.82659863,9.9 C4.52659863,9.3 4.92659863,8.5 6.22659863,7.6 C8.62659863,6 12.5265986,5.2 12.5265986,5.2 C12.7265986,5.2 12.9265986,5 12.8265986,4.8 Z" id="AlipayAndAlipayPlusNormal-猫路炉氓戮聞" fill="url(#AlipayAndAlipayPlusNormal-linearGradient-6)"></path><path d="M4.92659863,9 C4.72659863,9.3 4.72659863,9.7 4.82659863,9.9 C5.22659863,10.2 6.22659863,10.7 8.82659863,10.7 L8.32659863,9.4 C7.12659863,9.5 5.52659863,9.6 4.92659863,9 Z" id="AlipayAndAlipayPlusNormal-猫路炉氓戮聞" fill="url(#AlipayAndAlipayPlusNormal-linearGradient-7)"></path></g></g></g></g></svg>
